<?xml version="1.0" encoding="utf-8"?>
<!-- Generator: Adobe Illustrator 24.1.0, SVG Export Plug-In . SVG Version: 6.00 Build 0)  -->
<svg version="1.1" id="Layer_2" xmlns="http://www.w3.org/2000/svg" xmlns:xlink="http://www.w3.org/1999/xlink" x="0px" y="0px"
	 viewBox="0 0 800 800" style="enable-background:new 0 0 800 800;" xml:space="preserve">
<style type="text/css">
	.st0{opacity:0.7;}
	.st1{fill:#1ABCFD;}
	.st2{fill:none;stroke:#1ABCFD;stroke-miterlimit:10;}
	.st3{fill:#0ACE82;}
	.st4{fill:none;stroke:#0ACE82;stroke-miterlimit:10;}
	.st5{fill:#FF7261;}
	.st6{fill:none;stroke:#FF7261;stroke-miterlimit:10;}
</style>
<g id="Layer_3">
	<g class="st0">
		<path class="st1" d="M417.9,338.9c-9.8-4.9-25.9-4.9-35.8,0L117.9,471.1c-9.8,4.9-9.8,13,0,17.9l264.2,132.1
			c9.8,4.9,25.9,4.9,35.8,0l264.2-132.1c9.8-4.9,9.8-13,0-17.9L417.9,338.9z"/>
		<path class="st2" d="M417.9,338.9c-9.8-4.9-25.9-4.9-35.8,0L117.9,471.1c-9.8,4.9-9.8,13,0,17.9l264.2,132.1
			c9.8,4.9,25.9,4.9,35.8,0l264.2-132.1c9.8-4.9,9.8-13,0-17.9L417.9,338.9z"/>
	</g>
</g>
<g class="st0">
	<path class="st3" d="M417.9,258.9c-9.8-4.9-25.9-4.9-35.8,0L117.9,391.1c-9.8,4.9-9.8,13,0,17.9l264.2,132.1
		c9.8,4.9,25.9,4.9,35.8,0l264.2-132.1c9.8-4.9,9.8-13,0-17.9L417.9,258.9z"/>
	<path class="st4" d="M417.9,258.9c-9.8-4.9-25.9-4.9-35.8,0L117.9,391.1c-9.8,4.9-9.8,13,0,17.9l264.2,132.1
		c9.8,4.9,25.9,4.9,35.8,0l264.2-132.1c9.8-4.9,9.8-13,0-17.9L417.9,258.9z"/>
</g>
<g id="Layer_1">
	<g class="st0">
		<path class="st5" d="M417.9,178.9c-9.8-4.9-25.9-4.9-35.8,0L117.9,311.1c-9.8,4.9-9.8,13,0,17.9l264.2,132.1
			c9.8,4.9,25.9,4.9,35.8,0l264.2-132.1c9.8-4.9,9.8-13,0-17.9L417.9,178.9z"/>
		<path class="st6" d="M417.9,178.9c-9.8-4.9-25.9-4.9-35.8,0L117.9,311.1c-9.8,4.9-9.8,13,0,17.9l264.2,132.1
			c9.8,4.9,25.9,4.9,35.8,0l264.2-132.1c9.8-4.9,9.8-13,0-17.9L417.9,178.9z"/>
	</g>
</g>
</svg>
